<svg xmlns="http://www.w3.org/2000/svg" xmlns:xlink="http://www.w3.org/1999/xlink" version="1.0" x="0" y="0" width="2400" height="617.3377761009932" viewBox="78.46583251953125 101.45521240234375 183.0683349609375 47.08958282470703" preserveAspectRatio="xMidYMid meet" color-interpolation-filters="sRGB"><g><defs><linearGradient id="92" x1="0%" y1="0%" x2="100%" y2="0%"><stop offset="0%" stop-color="#fa71cd"></stop> <stop offset="100%" stop-color="#9b59b6"></stop></linearGradient><linearGradient id="93" x1="0%" y1="0%" x2="100%" y2="0%"><stop offset="0%" stop-color="#f9d423"></stop> <stop offset="100%" stop-color="#f83600"></stop></linearGradient><linearGradient id="94" x1="0%" y1="0%" x2="100%" y2="0%"><stop offset="0%" stop-color="#0064d2"></stop> <stop offset="100%" stop-color="#1cb0f6"></stop></linearGradient><linearGradient id="95" x1="0%" y1="0%" x2="100%" y2="0%"><stop offset="0%" stop-color="#f00978"></stop> <stop offset="100%" stop-color="#3f51b1"></stop></linearGradient><linearGradient id="96" x1="0%" y1="0%" x2="100%" y2="0%"><stop offset="0%" stop-color="#7873f5"></stop> <stop offset="100%" stop-color="#ec77ab"></stop></linearGradient><linearGradient id="97" x1="0%" y1="0%" x2="100%" y2="0%"><stop offset="0%" stop-color="#f9d423"></stop> <stop offset="100%" stop-color="#e14fad"></stop></linearGradient><linearGradient id="98" x1="0%" y1="0%" x2="100%" y2="0%"><stop offset="0%" stop-color="#009efd"></stop> <stop offset="100%" stop-color="#2af598"></stop></linearGradient><linearGradient id="99" x1="0%" y1="0%" x2="100%" y2="0%"><stop offset="0%" stop-color="#ffcc00"></stop> <stop offset="100%" stop-color="#00b140"></stop></linearGradient><linearGradient id="100" x1="0%" y1="0%" x2="100%" y2="0%"><stop offset="0%" stop-color="#d51007"></stop> <stop offset="100%" stop-color="#ff8177"></stop></linearGradient><linearGradient id="102" x1="0%" y1="0%" x2="100%" y2="0%"><stop offset="0%" stop-color="#a2b6df"></stop> <stop offset="100%" stop-color="#0c3483"></stop></linearGradient><linearGradient id="103" x1="0%" y1="0%" x2="100%" y2="0%"><stop offset="0%" stop-color="#7ac5d8"></stop> <stop offset="100%" stop-color="#eea2a2"></stop></linearGradient><linearGradient id="104" x1="0%" y1="0%" x2="100%" y2="0%"><stop offset="0%" stop-color="#00ecbc"></stop> <stop offset="100%" stop-color="#007adf"></stop></linearGradient><linearGradient id="105" x1="0%" y1="0%" x2="100%" y2="0%"><stop offset="0%" stop-color="#b88746"></stop> <stop offset="100%" stop-color="#fdf5a6"></stop></linearGradient></defs><g fill="#fff" class="basesvg" transform="translate(80.2606201171875,103.24999618530273)"><g fill-rule="" class="tp-name"><g transform="scale(1)"><g><path d="M15.24 0.6C20.28 0.6 24.72-1.98 26.64-6.96 27-7.8 25.62-8.76 25.02-8.76 23.58-5.64 21.18-3.84 18.48-3.84 13.5-3.84 10.26-7.8 9.3-12.36 8.16-18.12 10.38-24.66 14.4-25.14 18.66-25.14 19.44-21.84 20.1-18.24 21.24-17.46 22.8-16.92 24.18-16.92 26.04-16.92 27.48-17.88 26.46-20.7 25.5-23.28 22.26-27.42 15.54-27.42 7.32-27.42 2.04-20.94 2.04-12.78 2.04-3.66 8.58 0.6 15.24 0.6ZM30.12-6.84C30.12-2.46 34.14 0.6 39.36 0.6 42.18 0.6 44.58-1.44 46.2-4.14 46.68-2.28 48.06 0 50.04 0 51.18 0 54.9-1.14 56.52-2.1 57.18-2.52 57-3.54 56.58-3.78 56.04-3.54 55.56-3.42 55.08-3.42 53.64-3.42 52.86-4.68 52.86-6.54L52.86-19.14C52.86-25.86 47.1-27.6 42.9-27.6 38.82-27.6 31.32-24.42 31.32-19.92 31.32-18.3 32.1-17.7 33.24-17.7 34.62-17.7 36.48-18.66 37.74-19.68 37.92-22.08 39.42-25.32 42.18-25.32 44.88-25.32 45.84-22.92 45.84-19.56L45.84-15.6C40.32-14.52 30.12-12.06 30.12-6.84ZM37.86-7.44C37.86-10.08 42.66-11.94 45.84-12.9L45.84-7.68C45.36-5.76 43.62-3.66 41.7-3.66 39.72-3.66 37.86-5.34 37.86-7.44ZM58.38-24.66L58.38-23.28C59.1-23.46 60-23.7 60.78-23.7 61.92-23.7 62.76-23.22 62.76-21.12L62.76-5.82C62.76-3.42 62.34-1.68 59.64-1.68 58.62-1.74 58.56-0.42 59.04 0L72.9 0C73.38-0.48 73.44-1.68 72.3-1.68L72.06-1.68C70.44-1.68 69.78-2.34 69.78-5.76L69.78-19.8C71.46-21.72 73.5-23.22 75.48-23.28 78.9-23.28 79.74-20.52 79.74-17.58L79.74-5.82C79.74-2.4 79.08-1.68 77.46-1.68L77.22-1.68C77.16-1.68 77.16-1.68 77.1-1.68 76.2-1.62 76.14-0.42 76.62 0L90.48 0C90.96-0.42 90.9-1.74 89.88-1.68 87.18-1.68 86.76-3.42 86.76-5.82L86.76-18.3C86.76-24.84 83.1-27.42 78.36-27.42 74.82-27.42 72.12-25.38 69.78-23.04L69.78-25.62C69.84-26.64 69.36-27.18 68.46-27.18 68.16-27.18 67.86-27.12 67.44-27.06 65.04-26.58 61.02-25.74 58.92-25.26 58.56-25.14 58.38-24.96 58.38-24.66ZM93.6-12.9C93.6-4.26 99.48 0.6 106.44 0.6 109.56 0.6 111.9-0.84 113.58-2.76L113.58-1.08C113.58-0.06 114.06 0.48 114.96 0.48 117 0.48 122.58-0.84 124.5-1.5 124.86-1.56 125.04-1.8 125.04-2.16L124.92-3.66C124.14-3.6 123.3-3.36 122.52-3.36 121.5-3.36 120.66-3.78 120.6-5.88L120.6-41.34C120.66-42.36 120.24-42.9 119.34-42.9 119.04-42.9 118.68-42.84 118.26-42.78 115.92-42.3 111.9-41.64 109.8-40.98 109.44-40.86 109.26-40.68 109.26-40.38L109.26-39C109.98-39.18 110.82-39.36 111.6-39.36 112.74-39.36 113.58-38.94 113.58-36.84L113.58-25.44C111.9-26.76 109.86-27.42 107.46-27.42 99.06-27.42 93.6-21.6 93.6-12.9ZM106.68-25.14C109.74-25.14 112.02-24.18 113.58-21.36L113.58-8.94C112.68-5.76 111.36-2.88 108.72-2.58 103.44-2.58 101.52-7.92 101.22-12.48 100.74-19.2 102.78-24.66 106.68-25.14ZM140.82 0.6C148.62 0.6 154.5-5.4 154.5-13.8 154.5-22.2 148.62-27.42 140.82-27.42 133.02-27.42 127.08-21.36 127.08-13.02 127.08-4.62 133.02 0.6 140.82 0.6ZM141.3-1.62C137.7-1.62 135.54-6.84 135.06-13.26 134.76-19.98 136.14-24.72 139.8-25.2 144.9-25.2 146.34-17.46 146.52-13.56 146.82-6.84 145.44-2.1 141.78-1.62ZM157.56-24.72L157.56-23.52C158.28-23.58 159.12-23.76 159.9-23.76 161.04-23.76 161.94-23.34 161.94-21.36L161.94-5.82C161.94-3.42 161.52-1.68 158.82-1.68 157.8-1.74 157.74-0.42 158.22 0L172.62 0C173.1-0.48 173.16-1.68 172.02-1.68 169.32-1.68 168.96-3.36 168.96-5.76L168.96-16.5C170.1-19.32 172.26-20.88 174.12-21.06 176.52-21.06 177.66-20.4 179.64-19.02 183-21.78 181.68-27.42 177.06-27.42 173.64-27.42 170.82-24.18 168.96-20.22L168.96-25.68C169.02-26.7 168.6-27.24 167.7-27.24 167.58-27.24 167.46-27.24 167.34-27.24 167.1-27.24 166.86-27.24 166.62-27.12 164.4-26.64 160.2-25.8 158.1-25.32 157.74-25.2 157.56-25.02 157.56-24.72Z" transform="translate(-2.0399999618530273, 42.900001525878906)"></path></g> </g></g> </g><defs v-gra="od"></defs></g></svg>