<svg xmlns="http://www.w3.org/2000/svg" version="1.1" xmlns:xlink="http://www.w3.org/1999/xlink" xmlns:svgjs="http://svgjs.dev/svgjs" width="1000" height="1000"><g clip-path="url(#SvgjsClipPath1054)"><rect width="1000" height="1000" fill="#ffffff"></rect><g transform="matrix(20.58823529411765,0,0,20.58823529411765,201.4705882352941,150)"><svg xmlns="http://www.w3.org/2000/svg" version="1.1" xmlns:xlink="http://www.w3.org/1999/xlink" xmlns:svgjs="http://svgjs.dev/svgjs" width="29" height="34"><svg width="29" height="34" viewBox="0 0 29 34" fill="none" xmlns="http://www.w3.org/2000/svg">
<path d="M15.4615 33.7027C21.365 33.7027 26.5657 30.5995 28.8147 24.6095C29.2363 23.5991 27.6199 22.4444 26.9171 22.4444C25.2304 26.1972 22.4192 28.3622 19.2566 28.3622C13.4234 28.3622 9.62832 23.5991 8.50384 18.1143C7.16853 11.1861 9.76888 3.31975 14.4776 2.74241C19.4675 2.74241 20.3811 6.71167 21.1542 11.0418C22.4895 11.98 24.3168 12.6295 25.9332 12.6295C28.1119 12.6295 29.7986 11.4748 28.6038 8.08288C27.4794 4.97963 23.6843 0 15.8129 0C6.18461 0 0 7.7942 0 17.6091C0 28.5787 7.66049 33.7027 15.4615 33.7027Z" fill="#457B9D"></path>
</svg></svg></g></g><defs><clipPath id="SvgjsClipPath1054"><rect width="1000" height="1000" x="0" y="0" rx="150" ry="150"></rect></clipPath></defs></svg>