<svg width="638" height="153" viewBox="0 0 638 153" fill="none" xmlns="http://www.w3.org/2000/svg">
<path d="M87.2822 129.621C85.7646 134.463 83.0547 138.582 79.1523 141.979C75.25 145.375 70.6611 147.94 65.3857 149.675C60.1104 151.337 54.6182 152.168 48.9092 152.168C38.9365 152.168 30.3008 149.855 23.002 145.23C15.7754 140.533 10.2832 134.318 6.52539 126.586C2.76758 118.854 0.888672 110.471 0.888672 101.438C0.888672 91.8984 3.16504 83.1904 7.71777 75.3135C12.2705 67.3643 18.666 61.1133 26.9043 56.5605C35.1426 51.9355 44.501 49.623 54.9795 49.623C61.0498 49.623 66.6143 50.5264 71.6729 52.333C76.7314 54.0674 80.7061 56.5605 83.5967 59.8125C86.5596 63.0645 88.041 66.8223 88.041 71.0859C88.041 74.3379 86.9932 76.7227 84.8975 78.2402C82.8018 79.6855 80.5615 80.4082 78.1768 80.4082C75.9365 80.4082 74.2021 80.0107 72.9736 79.2158C71.7451 78.3486 70.8418 77.3369 70.2637 76.1807C69.7578 74.9521 69.252 73.2539 68.7461 71.0859C68.168 68.3398 67.4453 66.0996 66.5781 64.3652C65.7832 62.6309 64.2656 61.1133 62.0254 59.8125C59.7852 58.5117 56.5693 57.7891 52.3779 57.6445C46.8135 57.4277 41.6104 58.8008 36.7686 61.7637C31.9268 64.6543 28.0244 68.9902 25.0615 74.7715C22.1709 80.5527 20.7256 87.4902 20.7256 95.584C20.7256 103.1 22.0625 110.001 24.7363 116.288C27.4102 122.575 31.3125 127.598 36.4434 131.355C41.6465 135.113 47.8613 136.992 55.0879 136.992C61.375 136.992 66.6143 136.233 70.8057 134.716C74.9971 133.198 79.333 130.669 83.8135 127.128L87.2822 129.621ZM159.861 83.9854C159.861 78.5654 159.356 73.9766 158.344 70.2188C157.404 66.4609 155.453 63.4258 152.49 61.1133C149.6 58.8008 145.444 57.6445 140.025 57.6445C138.146 57.6445 135.833 58.042 133.087 58.8369C130.341 59.6318 127.92 60.7881 125.824 62.3057C123.801 63.751 122.789 65.4492 122.789 67.4004C122.789 68.1953 122.934 68.9902 123.223 69.7852C123.512 70.5078 123.982 71.4473 124.632 72.6035C125.282 73.6875 125.752 74.627 126.041 75.4219C126.33 76.2168 126.475 77.0479 126.475 77.915C126.475 80.8057 125.535 83.2266 123.656 85.1777C121.85 87.0566 119.501 87.9961 116.611 87.9961C112.997 87.9961 110.107 86.6592 107.939 83.9854C105.843 81.3115 104.795 78.0957 104.795 74.3379C104.795 68.7012 106.999 64.04 111.407 60.3545C115.816 56.6689 121.127 53.959 127.342 52.2246C133.629 50.4902 139.483 49.623 144.902 49.623C155.092 49.623 162.68 51.1406 167.666 54.1758C172.725 57.1387 176.049 61.5107 177.639 67.292C179.301 73.001 180.132 81.0225 180.132 91.3564L179.915 96.7764C179.843 98.3662 179.735 101.004 179.59 104.689C179.518 108.375 179.482 111.771 179.482 114.879C179.482 131.139 181.18 139.269 184.576 139.269C187.033 139.269 190.213 136.775 194.115 131.789L198.668 136.667C195.488 141.87 192.345 145.772 189.237 148.374C186.13 150.903 182.047 152.168 176.988 152.168C172.219 152.168 168.28 150.687 165.173 147.724C162.138 144.688 160.476 140.786 160.187 136.017C155.562 141.075 150.359 145.05 144.577 147.94C138.868 150.759 132.798 152.168 126.366 152.168C121.886 152.168 117.731 151.373 113.901 149.783C110.143 148.121 107.108 145.664 104.795 142.412C102.555 139.16 101.435 135.258 101.435 130.705C101.435 123.84 104.072 118.131 109.348 113.578C114.623 109.025 120.694 105.557 127.559 103.172C134.424 100.787 142.807 98.4023 152.707 96.0176C153.574 95.873 155.959 95.2949 159.861 94.2832V83.9854ZM159.861 100.679C158.777 101.04 157.404 101.474 155.742 101.979C149.527 104.003 144.216 105.954 139.808 107.833C135.4 109.64 131.461 112.097 127.992 115.204C124.524 118.312 122.789 121.961 122.789 126.152C122.789 130.416 123.945 133.776 126.258 136.233C128.643 138.69 131.967 139.919 136.231 139.919C140.494 139.919 144.613 138.871 148.588 136.775C152.563 134.607 156.32 131.789 159.861 128.32V100.679ZM241 125.936C241 132.15 242.554 136.667 245.661 139.485C248.841 142.231 253.646 143.93 260.078 144.58C260.078 145.664 260.042 146.748 259.97 147.832C259.897 148.916 259.861 149.639 259.861 150H204.036L203.928 146.531C203.928 145.375 203.964 144.58 204.036 144.146C208.227 143.135 211.371 142.231 213.467 141.437C215.635 140.642 217.405 139.341 218.778 137.534C220.151 135.728 220.838 133.198 220.838 129.946V71.1943C219.971 69.5322 218.272 68.0508 215.743 66.75C213.214 65.377 210.54 64.2568 207.722 63.3896C204.975 62.4502 203.602 62.0166 203.602 62.0889L203.928 58.4033L233.52 51.0322L240.133 50.5986L241.325 68.1592C245.3 62.8115 250.358 58.4033 256.501 54.9346C262.716 51.3936 269.4 49.623 276.555 49.623C287.033 49.623 295.163 52.5859 300.944 58.5117C306.725 64.4375 309.869 73.29 310.375 85.0693C310.592 89.6943 310.7 94.4277 310.7 99.2695V123.442C310.7 128.718 311.025 132.548 311.676 134.933C312.326 137.317 313.338 138.979 314.711 139.919C316.156 140.786 318.541 141.726 321.865 142.737L326.418 144.146C326.49 144.58 326.526 145.375 326.526 146.531L326.418 150H272.977C272.977 149.566 272.941 148.844 272.869 147.832C272.797 146.748 272.761 145.664 272.761 144.58C273.266 144.363 274.712 143.93 277.097 143.279C280.927 142.195 283.89 141.039 285.985 139.811C288.153 138.582 289.454 136.595 289.888 133.849C290.249 131.753 290.43 128.971 290.43 125.502V101.329C290.43 91.7178 290.068 84.3105 289.346 79.1074C288.695 73.9043 286.889 69.6406 283.926 66.3164C281.035 62.9922 276.338 61.3301 269.834 61.3301C264.703 61.3301 259.753 62.8115 254.983 65.7744C250.286 68.7373 245.625 72.6758 241 77.5898V125.936ZM407.348 22.6318C406.409 21.1865 404.566 19.7412 401.82 18.2959C399.146 16.8506 396.508 15.6221 393.907 14.6104C391.377 13.5986 389.715 12.9844 388.92 12.7676L389.137 8.97363L419.706 1.60254L427.51 0.84375V128.429C427.51 132.765 429.353 135.872 433.039 137.751C436.796 139.63 440.807 140.569 445.071 140.569V146.531L416.128 151.301H408.866L407.89 134.499C402.759 140.425 397.375 144.869 391.739 147.832C386.102 150.723 380.068 152.168 373.636 152.168C365.47 152.168 357.991 150.217 351.198 146.314C344.477 142.34 339.165 136.812 335.263 129.729C331.361 122.575 329.41 114.373 329.41 105.123C329.41 94.5 331.578 84.9971 335.914 76.6143C340.322 68.2314 346.356 61.6914 354.016 56.9941C361.676 52.2969 370.24 49.9482 379.707 49.9482C384.115 49.9482 388.415 50.6348 392.606 52.0078C396.797 53.3086 401.711 55.2959 407.348 57.9697V22.6318ZM407.348 94.7168C407.348 87.707 406.734 82.0703 405.505 77.8066C404.277 73.4707 401.784 69.6406 398.026 66.3164C395.135 63.7871 392.028 61.8359 388.704 60.4629C385.379 59.0176 382.019 58.2949 378.623 58.2949C372.914 58.2949 367.855 60.1377 363.447 63.8232C359.039 67.5088 355.606 72.4229 353.149 78.5654C350.764 84.6357 349.572 91.2119 349.572 98.2939C349.572 105.159 350.764 111.735 353.149 118.022C355.606 124.237 359.255 129.332 364.097 133.307C368.939 137.281 374.792 139.269 381.658 139.269C387.15 139.269 392.028 138.076 396.291 135.691C400.627 133.234 404.313 129.982 407.348 125.936V94.7168ZM498.953 49.623C508.565 49.623 517.309 51.7188 525.186 55.9102C533.135 60.0293 539.422 65.9551 544.047 73.6875C548.672 81.3477 550.985 90.2725 550.985 100.462C550.985 110.651 548.672 119.685 544.047 127.562C539.422 135.366 533.244 141.437 525.511 145.772C517.779 150.036 509.324 152.168 500.146 152.168C491.04 152.168 482.513 149.964 474.564 145.556C466.615 141.147 460.255 135.041 455.486 127.236C450.716 119.359 448.331 110.471 448.331 100.57C448.331 90.6699 450.644 81.8535 455.269 74.1211C459.894 66.3164 466.073 60.2822 473.805 56.0186C481.61 51.7549 489.993 49.623 498.953 49.623ZM501.555 143.713C510.733 143.713 517.706 140.425 522.476 133.849C527.245 127.272 529.63 118.637 529.63 107.941C529.63 98.6914 528.329 90.2002 525.728 82.4678C523.199 74.6631 519.549 68.4482 514.78 63.8232C510.01 59.1982 504.518 56.8857 498.303 56.8857C492.811 56.8857 487.933 58.2227 483.669 60.8965C479.478 63.5703 476.154 67.6895 473.697 73.2539C471.24 78.8184 470.011 85.792 470.011 94.1748C470.011 102.413 471.312 110.362 473.913 118.022C476.515 125.61 480.201 131.789 484.97 136.559C489.74 141.328 495.268 143.713 501.555 143.713ZM594.947 124.96C594.947 128.356 595.308 131.392 596.031 134.065C596.826 136.667 598.668 138.979 601.559 141.003C604.45 143.026 608.786 144.219 614.567 144.58L614.458 150H557.983C557.983 149.422 557.947 148.482 557.875 147.182C557.875 145.881 557.911 144.869 557.983 144.146L561.56 143.171C565.39 142.159 568.136 141.22 569.798 140.353C571.46 139.485 572.689 137.968 573.484 135.8C574.351 133.56 574.785 130.163 574.785 125.61V71.0859C573.845 69.4961 572.111 68.0508 569.582 66.75C567.052 65.377 564.415 64.2568 561.668 63.3896C558.995 62.5225 557.658 62.125 557.658 62.1973L557.875 58.4033L586.708 50.707H592.887L594.622 70.6523C598.668 63.209 602.86 57.9336 607.196 54.8262C611.604 51.7188 616.626 50.165 622.263 50.165C625.154 50.165 627.755 50.7793 630.068 52.0078C632.453 53.1641 634.295 54.6816 635.596 56.5605C636.969 58.3672 637.656 60.21 637.656 62.0889C637.656 63.3174 637.294 64.9795 636.572 67.0752C635.921 69.1709 634.874 71.0137 633.428 72.6035C632.055 74.1934 630.357 74.9883 628.333 74.9883C626.021 74.9883 624.214 74.4824 622.914 73.4707C621.613 72.3867 620.276 70.7969 618.903 68.7012C617.891 67.1113 616.916 65.9189 615.976 65.124C615.109 64.3291 613.989 63.9316 612.616 63.9316C610.303 63.9316 608.208 64.6182 606.329 65.9912C604.522 67.292 602.932 68.918 601.559 70.8691C600.186 72.8203 598.524 75.4219 596.573 78.6738L594.947 81.3838V124.96Z" fill="#1D3557"/>
</svg>
